PathFileType	4	(X/Y/Z)	RBDS09\RBDS09runT35.trc
DataRate	CameraRate	NumFrames	NumMarkers	Units	OrigDataRate	OrigDataStartFrame	OrigNumFrames
150.000000	150.000000	4	33	mm	150.000000	1687	4500
Frame#	Time	L.ASIS			L.Heel.Bottom			L.Heel.Lateral			L.Heel.Top			L.Iliac.Crest			L.MT1			L.MT5			L.PSIS			L.Shank.Bottom.Lateral			L.Shank.Bottom.Medial			L.Shank.Top.Lateral			L.Shank.Top.Medial			L.Thigh.Bottom.Lateral			L.Thigh.Bottom.Medial			L.Thigh.Top.Lateral			L.Thigh.Top.Medial			R.ASIS			R.ASY			R.Heel.Bottom			R.Heel.Lateral			R.Heel.Top			R.Iliac.Crest			R.MT1			R.MT5			R.PSIS			R.Shank.Bottom.Lateral			R.Shank.Bottom.Medial			R.Shank.Top.Lateral			R.Shank.Top.Medial			R.Thigh.Bottom.Lateral			R.Thigh.Bottom.Medial			R.Thigh.Top.Lateral			R.Thigh.Top.Medial			
		X1	Y1	Z1	X2	Y2	Z2	X3	Y3	Z3	X4	Y4	Z4	X5	Y5	Z5	X6	Y6	Z6	X7	Y7	Z7	X8	Y8	Z8	X9	Y9	Z9	X10	Y10	Z10	X11	Y11	Z11	X12	Y12	Z12	X13	Y13	Z13	X14	Y14	Z14	X15	Y15	Z15	X16	Y16	Z16	X17	Y17	Z17	X18	Y18	Z18	X19	Y19	Z19	X20	Y20	Z20	X21	Y21	Z21	X22	Y22	Z22	X23	Y23	Z23	X24	Y24	Z24	X25	Y25	Z25	X26	Y26	Z26	X27	Y27	Z27	X28	Y28	Z28	X29	Y29	Z29	X30	Y30	Z30	X31	Y31	Z31	X32	Y32	Z32	X33	Y33	Z33	

1688	11.24666666666667	2278.909066646585	1008.183538075649	945.93716556968	2186.358365298981	144.266799371543	998.6703492910506	2214.657454902209	154.2669424303174	950.2563830454505	2206.408684642053	189.2343308481734	994.0643348080494	2209.700782448072	1077.409208270151	905.7022029575095	2398.189174462207	99.0862941090855	994.9846224783123	2343.027383102192	103.4413222053818	899.4135918130307	2121.644165305246	1036.635062858654	1019.773530333429	2273.771580687873	274.3645272973037	921.1619567634002	2244.029097182777	282.4852563967645	965.4572151690181	2283.418365496296	353.6689631824134	910.6802634555239	2254.746820406767	362.3994042305216	955.5373057409606	2319.88532745049	670.0466178837972	894.4964244972628	2272.796901031335	637.304075278615	940.1297388059573	2252.155220901323	757.0014489314558	889.9751211651077	2208.761601468175	726.9743196965744	935.2740325638467	2281.807738818129	980.7992410516637	1175.117817740974	70215241.60680559	-97663521.26391678	-254241016.7034585	1707.519185915015	224.0073668575959	1078.82319635949	1733.677888938539	210.9446517830929	1131.468918469066	1747.664367165402	249.5562273051758	1090.339537358075	2256.796646319466	1053.737260507804	1206.790973739544	1865.987186992755	82.48747222328346	1081.389949136567	1807.691952536818	92.54450625262699	1175.520885520019	2125.689023659408	1031.619865920357	1095.136358047273	1813.149619619905	302.4097140444873	1150.065025481578	1803.950029291785	315.9201103587665	1101.124620274284	1847.046076232589	379.3890442552816	1162.662757503643	1836.189991279663	389.2848068214636	1111.297259276012	2065.314435188577	632.5296259944034	1196.590458884419	2011.392127283536	654.8071738471558	1152.497374622457	2095.374081494332	738.0943986209332	1209.112028987004	2046.847103026855	758.2713176554513	1164.399157765555	
1689	11.25333333333333	2279.285878121557	1010.861794525392	946.0284699686484	2210.890036625059	129.4305973735716	997.5073575666033	2238.911284030371	141.0750143226412	949.2658880221654	2227.728182314994	175.6829470816609	992.6602997333449	2210.014089752027	1081.550879363695	906.3824668672784	2425.200928585113	99.70428468158299	996.4889313409323	2371.088959830336	99.03199043307038	900.3361878560644	2122.554870683029	1040.051175894819	1020.909386465427	2288.812640259244	266.0872460364811	920.7352858502531	2258.902784574221	272.1759828619879	965.2261624887396	2293.148083291299	345.6645008729187	910.265999017031	2264.199448551919	352.4801421723558	955.3134344997165	2314.639260061983	669.4382448301783	895.6090531592914	2266.96147134688	637.8612488619837	941.4126405011684	2248.98300682519	757.9420426893121	891.0571920058006	2205.238741795112	729.096848967086	936.761698603851	2283.292019832403	983.4807479168068	1174.838520673812	70343070.70426731	-97842208.77603568	-254705891.0613435	1696.077835151818	240.3607483785378	1079.843468498026	1721.909864076941	225.5252550562775	1132.235016733336	1737.402734298073	264.1375675666416	1091.532368993965	2260.060613661649	1057.644461841461	1206.254031706231	1849.110692811576	92.55460385438387	1080.070511216372	1791.436634953059	103.2655487364303	1174.353443020681	2127.061003324766	1035.352691374082	1096.445733461268	1804.346699825312	313.2809810618899	1150.842953698254	1795.372912163449	327.1830499008565	1101.985020179901	1840.786652841605	388.9887059683915	1163.314396663567	1829.918334453414	399.3731443243031	1112.106681611099	2065.223211500333	636.1216721691546	1196.623357905875	2011.006962289685	658.8675006988384	1153.09567822425	2096.121100081298	741.410525170664	1209.457508018687	2047.319284487364	762.0032567608974	1165.310510617553	
1690	11.26	2279.486856816782	1013.040903150596	946.018254125868	2234.777998301579	116.0383145005078	996.3983106194859	2262.474103742894	129.1658726447322	948.331534930718	2248.411063455707	163.3060429006005	991.2563493727258	2209.896232385648	1084.768204083458	907.0270071351279	2450.44713650762	101.5631299562857	998.1550619100058	2397.734421413815	95.84026113254612	901.3968396738342	2123.176011919973	1042.788856818861	1022.01263912905	2302.980528391533	258.50210434359	920.3868398517441	2272.979714930016	262.6224660986981	965.0173952851587	2302.091515370594	337.9713602281089	909.9571191705153	2272.925329249283	342.966747301022	955.1219978250605	2308.834564740275	668.0208323829935	896.6879528072432	2260.80973283336	637.8647305275883	943.0277357657751	2245.383255307122	758.1126592536643	892.1070673529223	2201.485702341419	730.665281467739	938.4860205485966	2284.518119410985	985.9930348266538	1174.579734644346	70471054.82862926	-98021114.10725574	-255171331.7452951	1684.94667499355	257.0187613494275	1081.110185243771	1710.548086963184	240.4640282459092	1133.108941547325	1727.329394924099	279.0432042979867	1092.780588481347	2262.253310133668	1061.373689306843	1205.769484576493	1832.469035177565	103.6639506440879	1078.172283846382	1775.740091906945	114.8393386792735	1172.946653018366	2128.128277900742	1038.497446884787	1097.724018218503	1796.227252503131	324.4308590331873	1151.547899036139	1787.43785403353	338.9072790071261	1102.856219741473	1835.591509762406	398.5358976062248	1163.97142796908	1824.659923048663	409.6265403304479	1112.994320978209	2066.674857222775	638.3657834455665	1196.604516859894	2011.94175616961	661.3427077338752	1153.885014911061	2097.848251762563	743.4932307771229	1209.937522205501	2048.470630900656	764.2989577321916	1166.642903271554	
1691	11.26666666666667	2279.512275833595	1014.738061684261	945.9388402546444	2257.675389544609	104.151137725984	995.487849718411	2284.961816633007	118.6318007216516	947.5708250170159	2268.148407896587	152.1801850762427	990.0184034527766	2209.409649374624	1087.025589101601	907.5927174701158	2473.686962304512	104.510463332546	999.7741042715942	2422.558132481968	93.88028021746396	902.4708129137025	2123.512611614838	1044.824913335089	1023.045656775018	2316.072900257836	251.6924302397046	920.1948755598562	2286.055019598226	253.9109666185479	964.9224217929346	2310.118741301701	330.7273382383976	909.8567841376804	2280.790387229657	333.9923473653085	955.0779203861657	2302.63695499496	665.9539713975654	897.7533046648705	2254.52523169064	637.4219333199287	944.9681367322888	2241.447450426242	757.6137145918763	893.1392553956533	2197.605812435785	731.729212562466	940.4242504681403	2285.485761404632	988.2852343012172	1174.356147629051	70599194.07382305	-98200237.39025512	-255637339.1000614	1674.328023884441	274.0537185874438	1082.610463615774	1699.755609765841	255.7951851188595	1134.090698271421	1717.663124939165	294.3061178826235	1094.093294596048	2263.359503117085	1064.888547139099	1205.373269986866	1816.149039050763	115.701950387414	1075.802865636554	1760.640771936647	127.2092602449022	1171.36601195312	2128.888335677108	1040.991861604981	1098.926388507658	1788.900313480713	335.8531113491687	1152.20060799151	1780.275644456241	351.0575539684844	1103.746075405103	1831.485224138894	408.0363460902899	1164.631080379076	1820.463772119187	420.0237273489579	1113.948660007361	2069.52445620933	639.2765305825097	1196.486257704867	2014.109917501853	662.2785272591656	1154.742394667879	2100.455235735081	744.3578950530226	1210.503500873535	2050.26355368651	765.198449564017	1168.270377398031	
